<?xml version="1.0" encoding="UTF-8" standalone="no"?>
<svg
   xmlns:dc="http://purl.org/dc/elements/1.1/"
   xmlns:cc="http://creativecommons.org/ns#"
   xmlns:rdf="http://www.w3.org/1999/02/22-rdf-syntax-ns#"
   xmlns:svg="http://www.w3.org/2000/svg"
   xmlns="http://www.w3.org/2000/svg"
   height="66.820244"
   width="77.72541"
   version="1.1"
   viewBox="0 0 77.72541 66.820241"
   data-name="Calque 1"
   id="Calque_1">
  <metadata
     id="metadata37">
    <rdf:RDF>
      <cc:Work
         rdf:about="">
        <dc:format>image/svg+xml</dc:format>
        <dc:type
           rdf:resource="http://purl.org/dc/dcmitype/StillImage" />
        <dc:title>Plmsurfondnoir</dc:title>
      </cc:Work>
    </rdf:RDF>
  </metadata>
  <defs
     id="defs4">
    <style
       id="style2">.cls-1{fill:#2595ca;}.cls-2{fill:#ef7c79;}.cls-3{fill:#dbe1ec;}</style>
  </defs>
  <title
     id="title6">Plmsurfondnoir</title>
  <path
     style="fill:#2595ca"
     id="path8"
     d="m 52.272544,63.970007 a 52.58,52.58 0 0 0 20.94,-18.25 c 4.38,-6.88 5.23,-12.89 4,-20.34 -1.92,-7.3 -5.16,-12.45 -12,-17.0000072 A 53,53 0 0 0 38.632544,0.16 c -10.05,0.36 -11.12,4.5999995 -5.42,9.1099998 5.08,4.8900072 16.94,10.0700072 18.59,21.4500072 3.14,11.07 -5.57,20.57 -8.21,27.1 -3.37,6.42 -0.66,9.86 8.68,6.15 z"
     class="cls-1" />
  <path
     style="fill:#ef7c79"
     id="path10"
     d="m 68.952544,31.620007 c -6.64,3.06 -15.75,12.19 -27.87,10.05 -5.75,-0.32 -10.3,-2.89 -14.11,-6 -0.54,8.26 5.34,16.13 7.03,21.49 2.34,5.34 0.67,8.74 4.22,9.3 8.05,0.59 14.34,-0.71 21.15,-5.46 a 49.68,49.68 0 0 0 17,-21.57 c 2.97,-9.27 -0.98,-11.55 -7.42,-7.81 z"
     class="cls-2" />
  <path
     style="fill:#dbe1ec"
     id="path12"
     d="m 28.372544,65.070007 a 59.7,59.7 0 0 1 -23.22,-19.23 c -4.89999997,-7.16 -5.90999997,-13.34 -4.66999997,-20.95 1.99999997,-7.44 5.47999997,-12.64 12.88999997,-17.1000076 A 59.33,59.33 0 0 1 42.432544,0 c 11,0.63 12.26,4.9999992 6.07,9.4699994 -5.5,4.9000076 -18.43,9.9100076 -20.09,21.5400076 -3.29,11.27 6.4,21.23 9.38,28 3.79,6.64 0.86,10.15 -9.42,6.06 z"
     class="cls-3" />
</svg>
