<svg id="Calque_1" data-name="Calque 1" xmlns="http://www.w3.org/2000/svg" viewBox="0 0 388.41 66.8"><defs><style>.cls-1{fill:#2595ca;}.cls-2{fill:#ef7c79;}.cls-3{fill:#dbe1ec;}</style></defs><title>Plmsurfondnoir</title><path class="cls-1" d="M56.27,66.81A52.58,52.58,0,0,0,77.21,48.56c4.38-6.88,5.23-12.89,4-20.34-1.92-7.3-5.16-12.45-12-17A53,53,0,0,0,42.63,3c-10.05.36-11.12,4.6-5.42,9.11C42.29,17,54.15,22.18,55.8,33.56c3.14,11.07-5.57,20.57-8.21,27.1C44.22,67.08,46.93,70.52,56.27,66.81Z" transform="translate(-3.99 -2.84)"/><path class="cls-2" d="M72.95,34.46C66.31,37.52,57.2,46.65,45.08,44.51c-5.75-.32-10.3-2.89-14.11-6C30.43,46.77,36.31,54.64,38,60c2.34,5.34.67,8.74,4.22,9.3,8.05.59,14.34-.71,21.15-5.46a49.68,49.68,0,0,0,17-21.57C83.34,33,79.39,30.72,72.95,34.46Z" transform="translate(-3.99 -2.84)"/><path class="cls-3" d="M32.37,67.91A59.7,59.7,0,0,1,9.15,48.68c-4.9-7.16-5.91-13.34-4.67-20.95,2-7.44,5.48-12.64,12.89-17.1A59.33,59.33,0,0,1,46.43,2.84c11,.63,12.26,5,6.07,9.47C47,17.21,34.07,22.22,32.41,33.85c-3.29,11.27,6.4,21.23,9.38,28C45.58,68.49,42.65,72,32.37,67.91Z" transform="translate(-3.99 -2.84)"/><path class="cls-3" d="M97.07,25.59V47.35h3.77a11.9,11.9,0,0,0,4.5-.82,10.44,10.44,0,0,0,3.47-2.25,10,10,0,0,0,2.25-3.41,11.37,11.37,0,0,0,.79-4.28A11.75,11.75,0,0,0,111,32.2a10.28,10.28,0,0,0-2.27-3.49,10.53,10.53,0,0,0-3.49-2.29,11.55,11.55,0,0,0-4.43-.84ZM91.25,53.17V19.76h9.6a18.66,18.66,0,0,1,6.81,1.2A15.73,15.73,0,0,1,113,24.32a15.25,15.25,0,0,1,3.47,5.16,17.22,17.22,0,0,1,1.24,6.64,17.82,17.82,0,0,1-1.26,6.73,16.64,16.64,0,0,1-3.49,5.42,15.94,15.94,0,0,1-5.33,3.6,17.21,17.21,0,0,1-6.74,1.31Z" transform="translate(-3.99 -2.84)"/><path class="cls-3" d="M137.14,25.59a11.63,11.63,0,0,0-4.41.82,10.49,10.49,0,0,0-3.48,2.27,10.38,10.38,0,0,0-2.31,3.47,11.56,11.56,0,0,0-.83,4.46,11.23,11.23,0,0,0,.81,4.33,10,10,0,0,0,5.75,5.63,12.18,12.18,0,0,0,4.47.79h1a12,12,0,0,0,4.51-.82,10.36,10.36,0,0,0,3.48-2.25,9.92,9.92,0,0,0,2.25-3.41,11.4,11.4,0,0,0,.79-4.28,11.69,11.69,0,0,0-.81-4.41,10.22,10.22,0,0,0-5.79-5.78,11.79,11.79,0,0,0-4.43-.82Zm0,27.58a17.37,17.37,0,0,1-6.8-1.31A15.81,15.81,0,0,1,125,48.25a16.59,16.59,0,0,1-3.47-5.42,17.85,17.85,0,0,1-1.24-6.7,17.33,17.33,0,0,1,1.22-6.6A15,15,0,0,1,130.25,21a19,19,0,0,1,6.88-1.2h1A18.81,18.81,0,0,1,145,21a15.53,15.53,0,0,1,5.32,3.4,15.1,15.1,0,0,1,3.41,5.18,17.45,17.45,0,0,1,1.2,6.55,17.85,17.85,0,0,1-1.25,6.7,16.45,16.45,0,0,1-3.5,5.42,16.09,16.09,0,0,1-5.34,3.62,17.21,17.21,0,0,1-6.78,1.31Z" transform="translate(-3.99 -2.84)"/><path class="cls-3" d="M174.09,53.17a17.45,17.45,0,0,1-6.83-1.31,15.69,15.69,0,0,1-5.31-3.6,16.5,16.5,0,0,1-3.45-5.42,18,18,0,0,1-1.24-6.73,17.45,17.45,0,0,1,1.22-6.64,15.11,15.11,0,0,1,3.43-5.16A15.44,15.44,0,0,1,167.21,21a19,19,0,0,1,6.87-1.2H179v5.83h-4.88a11.54,11.54,0,0,0-4.43.84,10.71,10.71,0,0,0-3.51,2.29,10.37,10.37,0,0,0-2.31,3.49A11.48,11.48,0,0,0,163,36.6a11.21,11.21,0,0,0,.81,4.33,10.18,10.18,0,0,0,2.27,3.41,10.07,10.07,0,0,0,3.51,2.23,12.41,12.41,0,0,0,4.5.79H179v5.82Z" transform="translate(-3.99 -2.84)"/><path class="cls-1" d="M187.37,25.59V47.35h3.77a11.91,11.91,0,0,0,4.5-.82,10.38,10.38,0,0,0,3.47-2.25,9.9,9.9,0,0,0,2.25-3.41,11.35,11.35,0,0,0,.79-4.28,11.68,11.68,0,0,0-.82-4.39,10.24,10.24,0,0,0-2.27-3.49,10.53,10.53,0,0,0-3.49-2.29,11.56,11.56,0,0,0-4.43-.84Zm-5.82,27.58V19.76h9.59a18.68,18.68,0,0,1,6.81,1.2,15.72,15.72,0,0,1,5.31,3.36,15.25,15.25,0,0,1,3.47,5.16A17.2,17.2,0,0,1,208,36.13a17.82,17.82,0,0,1-1.26,6.73,16.62,16.62,0,0,1-3.49,5.42,15.94,15.94,0,0,1-5.33,3.6,17.2,17.2,0,0,1-6.74,1.31Z" transform="translate(-3.99 -2.84)"/><path class="cls-1" d="M227.48,25.59a11.64,11.64,0,0,0-4.41.82,10.33,10.33,0,0,0-5.79,5.74,11.58,11.58,0,0,0-.83,4.46,11.27,11.27,0,0,0,.81,4.33A10,10,0,0,0,223,46.55a12.19,12.19,0,0,0,4.47.79h1a12,12,0,0,0,4.51-.82,10.35,10.35,0,0,0,3.48-2.25,9.94,9.94,0,0,0,2.25-3.41,11.4,11.4,0,0,0,.79-4.28,11.66,11.66,0,0,0-.81-4.41,10.2,10.2,0,0,0-5.79-5.78,11.8,11.8,0,0,0-4.43-.82Zm0,27.58a17.37,17.37,0,0,1-6.8-1.31,15.82,15.82,0,0,1-5.34-3.62,16.6,16.6,0,0,1-3.47-5.42,17.82,17.82,0,0,1-1.24-6.7,17.3,17.3,0,0,1,1.22-6.6A15,15,0,0,1,220.59,21a19,19,0,0,1,6.89-1.2h1A18.8,18.8,0,0,1,235.39,21a15.54,15.54,0,0,1,5.32,3.4,15.13,15.13,0,0,1,3.41,5.18,17.43,17.43,0,0,1,1.2,6.55,17.87,17.87,0,0,1-1.24,6.7,16.44,16.44,0,0,1-3.49,5.42,16.11,16.11,0,0,1-5.34,3.62,17.2,17.2,0,0,1-6.78,1.31Z" transform="translate(-3.99 -2.84)"/><path class="cls-1" d="M262,39.57l-7.79,12a3.17,3.17,0,0,1-1.48,1.35,4.85,4.85,0,0,1-1.87.36,2.29,2.29,0,0,1-1.8-.77,3,3,0,0,1-.69-2.1V19.65h5.83V42.23l14.31-22.57h6.94l-10,14.73,13.62,18.68h-7.88Z" transform="translate(-3.99 -2.84)"/><path class="cls-1" d="M306.4,19.76V38.09q0,7.28-3.36,11.18t-9.44,3.9h-1.11q-6.13,0-9.45-3.88t-3.32-11.2V19.76h5.83V38.09a21,21,0,0,0,.39,4.41,7.12,7.12,0,0,0,1.22,2.85,4.45,4.45,0,0,0,2.14,1.54,9.78,9.78,0,0,0,3.19.45h1.11a9.47,9.47,0,0,0,3.17-.47,4.78,4.78,0,0,0,2.18-1.54,6.78,6.78,0,0,0,1.24-2.85,21,21,0,0,0,.38-4.39V19.76Z" transform="translate(-3.99 -2.84)"/><path class="cls-1" d="M330.93,30.45q0,5.54-2.88,8.56t-8.17,3h-2.21V53h-7.86V19.94h10.07q5.51,0,8.28,2.74T330.93,30.45Zm-13.25,4.3h1.43a3.64,3.64,0,0,0,2.82-1.13,4.42,4.42,0,0,0,1-3.12q0-3.34-3.26-3.35h-2Z" transform="translate(-3.99 -2.84)"/><path class="cls-1" d="M335.56,53V19.94h7.86V45.78h11.2V53Z" transform="translate(-3.99 -2.84)"/><path class="cls-1" d="M372,53,366,29.19h-.18q.42,6.08.42,9.45V53h-7V19.94h10.46l6.07,23.47H376l5.95-23.47H392.4V53h-7.22V38.5q0-1.13,0-2.51t.27-6.76h-.18L379.43,53Z" transform="translate(-3.99 -2.84)"/></svg>